<svg width="143" height="143" viewBox="0 0 143 143" fill="none" xmlns="http://www.w3.org/2000/svg">
<path fill-rule="evenodd" clip-rule="evenodd" d="M42 127.355C42 118.66 61.013 123.263 61.013 99.7628C61.013 86.9753 46.3625 86.0801 46.3625 74.7845C46.3625 57.4648 62.5761 9 72.0684 9C81.5607 9 98.0727 57.4221 98.0727 73.3636C98.0727 85.1992 82.9106 84.5882 82.9106 97.6742C82.9106 122.425 101 121.033 101 127.767C101 136.25 42 136.037 42 127.355ZM69.2264 29.5879C65.2618 28.1671 53.1975 65.8903 56.3663 70.1383C58.7536 73.3352 64.1676 73.1505 66.6828 55.4756C68.388 43.5263 71.9263 30.5399 69.2264 29.5879ZM66.1002 120.933C61.0841 119.91 56.5369 120.805 56.3379 124.173C56.0537 128.606 74.5409 128.776 74.4415 125.182C74.342 122.78 70.7042 121.885 66.1002 120.933Z" fill="#C4C4C4"/>
</svg>
