<svg xmlns="http://www.w3.org/2000/svg" xmlns:xlink="http://www.w3.org/1999/xlink" viewBox="0 0 721.2086791992188 721.2086791992188" width="721.2086791992188" height="721.2086791992188" style="width: 100%; height: 100%; transform: translate3d(0,0,0);" preserveAspectRatio="xMidYMid meet"><defs><clipPath id="__lottie_element_2"><rect width="721.2086791992188" height="721.2086791992188" x="0" y="0"></rect></clipPath></defs><g clip-path="url(#__lottie_element_2)"><g style="display: block;" transform="matrix(1,0,0,1,0,0)" opacity="1"><g opacity="1" transform="matrix(1,0,0,1,0,0)"><path fill="rgb(255,255,255)" fill-opacity="1" d=" M721.20849609375,-0.00048828125 C721.20849609375,-0.00048828125 721.20849609375,721.20849609375 721.20849609375,721.20849609375 C721.20849609375,721.20849609375 -0.00048828125,721.20849609375 -0.00048828125,721.20849609375 C-0.00048828125,721.20849609375 -0.00048828125,-0.00048828125 -0.00048828125,-0.00048828125 C-0.00048828125,-0.00048828125 721.20849609375,-0.00048828125 721.20849609375,-0.00048828125z"></path></g></g><g style="display: block;" transform="matrix(1,0,0,1,360.6050109863281,360.60400390625)" opacity="1"><g opacity="1" transform="matrix(0.06975647062063217,-0.9975640773773193,0.9975640773773193,0.06975647062063217,-324.3213806152344,207.21231079101562)"><path fill="rgb(66,133,244)" fill-opacity="1" d=" M164.25,156.06399536132812 C161.9770050048828,156.0709991455078 159.71800231933594,156.125 157.4720001220703,156.2259979248047 C157.4720001220703,156.2259979248047 29.343000411987305,156.2259979248047 29.343000411987305,156.2259979248047 C29.343000411987305,156.2259979248047 64.76499938964844,191.6479949951172 64.76499938964844,191.6479949951172 C29.280000686645508,220.63999938964844 6.61299991607666,264.7430114746094 6.61299991607666,314.1419982910156 C6.61299991607666,365.5509948730469 31.152999877929688,411.22198486328125 69.15299987792969,440.0920104980469 C69.15299987792969,440.0920104980469 127.82499694824219,382.031005859375 127.82499694824219,382.031005859375 C117.3219985961914,376.34600830078125 108.28900146484375,368.2919921875 101.43900299072266,358.5090026855469 C93.5260009765625,348.37298583984375 87.05799865722656,334.010986328125 87.05799865722656,314.1419982910156 C87.05799865722656,311.7409973144531 87.34100341796875,309.8900146484375 87.86799621582031,308.52899169921875 C89.80999755859375,283.9110107421875 103.3949966430664,262.57501220703125 123.11299896240234,250.01199340820312 C123.11299896240234,250.01199340820312 164.21299743652344,291.1099853515625 164.21299743652344,291.1099853515625 C164.00900268554688,239.0540008544922 163.88800048828125,180.2449951171875 164.23899841308594,156.0679931640625"></path></g><g opacity="1" transform="matrix(1,0,0,1,-162.54800415039062,-249.97500610351562)"><path fill="rgb(171,171,171)" fill-opacity="1" d=" M6.619999885559082,314.13800048828125 C6.626999855041504,316.4079895019531 6.681000232696533,318.6659851074219 6.7829999923706055,320.9119873046875 C6.7829999923706055,320.9119873046875 6.7829999923706055,449.0419921875 6.7829999923706055,449.0419921875 C6.7829999923706055,449.0419921875 42.20500183105469,413.6199951171875 42.20500183105469,413.6199951171875 C71.19499969482422,449.1059875488281 115.29900360107422,471.7720031738281 164.69900512695312,471.7720031738281 C216.10699462890625,471.7720031738281 261.77899169921875,447.23199462890625 290.64898681640625,409.23199462890625 C290.64898681640625,409.23199462890625 232.58700561523438,350.5589904785156 232.58700561523438,350.5589904785156 C226.90199279785156,361.06298828125 218.8489990234375,370.0979919433594 209.0659942626953,376.9490051269531 C198.9290008544922,384.8590087890625 184.5679931640625,391.3269958496094 164.69900512695312,391.3269958496094 C162.2969970703125,391.3269958496094 160.44700622558594,391.0469970703125 159.08599853515625,390.5169982910156 C134.4669952392578,388.57501220703125 113.13200378417969,374.989990234375 100.56800079345703,355.27099609375 C100.56800079345703,355.27099609375 141.66700744628906,314.1719970703125 141.66700744628906,314.1719970703125 C89.61000061035156,314.3760070800781 30.802000045776367,314.49700927734375 6.624000072479248,314.14599609375"></path></g><g opacity="1" transform="matrix(1,0,0,1,173.76600646972656,-151.2550048828125)"><g opacity="1" transform="matrix(1,0,0,1,-194.41000366210938,-141.3800048828125)"><path fill="rgb(28,57,169)" fill-opacity="1" d=" M80.5770034790039,154.39999389648438 C111.30599975585938,186.2209930419922 162.01400756835938,187.1060028076172 193.8350067138672,156.37600708007812 C225.65699768066406,125.64700317382812 226.54200744628906,74.93900299072266 195.81199645996094,43.11800003051758 C165.08299255371094,11.295999526977539 114.375,10.41100025177002 82.5530014038086,41.14099884033203 C50.731998443603516,71.87100219726562 49.84700012207031,122.5780029296875 80.57599639892578,154.39999389648438"></path></g><g opacity="1" transform="matrix(1,0,0,1,-194.41000366210938,-141.3800048828125)"><path fill="rgb(28,57,169)" fill-opacity="1" d=" M164.95799255371094,234.66099548339844 C201.94700622558594,272.9639892578125 262.9830017089844,274.02899169921875 301.2850036621094,237.04100036621094 C339.5880126953125,200.052001953125 340.65399169921875,139.01600646972656 303.6650085449219,100.71299743652344 C266.6759948730469,62.40999984741211 205.64100646972656,61.345001220703125 167.33799743652344,98.33300018310547 C129.03500366210938,135.3209991455078 127.96900177001953,196.35800170898438 164.95799255371094,234.66099548339844"></path></g><g opacity="1" transform="matrix(1,0,0,1,-194.41000366210938,-141.3800048828125)"><path fill="rgb(28,57,169)" fill-opacity="1" d=" M146.3979949951172,19.256999969482422 C159.10499572753906,19.89699935913086 173.85699462890625,23.354999542236328 188.52699279785156,28.58799934387207 C205.04200744628906,34.47600173950195 291.6929931640625,86.73300170898438 298.24798583984375,97.0260009765625 C303.9289855957031,105.947998046875 313.94500732421875,125.09400177001953 315.5610046386719,134.23199462890625 C317.1180114746094,143.03799438476562 317.093994140625,152.71099853515625 315.15399169921875,160.802001953125 C313.3070068359375,168.4980010986328 309.1130065917969,175.9669952392578 304.71099853515625,181.8000030517578 C300.593994140625,187.26300048828125 295.9429931640625,191.5919952392578 289.9429931640625,195.1219940185547 C283.3609924316406,198.99400329589844 273.9490051269531,202.34500122070312 266.3059997558594,203.44900512695312 C259.22698974609375,204.4709930419922 252.2480010986328,203.83299255371094 245.677001953125,202.21299743652344 C239.11300659179688,200.5970001220703 232.88600158691406,198.23800659179688 226.8939971923828,193.74899291992188 C219.9499969482422,188.54800415039062 210.6840057373047,176.072998046875 207.14700317382812,171.41900634765625 C205.3070068359375,168.99099731445312 206.63400268554688,168.6479949951172 204.10800170898438,166.41700744628906 C198.15199279785156,161.1529998779297 175.78199768066406,148.16900634765625 161.04800415039062,141.2259979248047 C146.63600158691406,134.43099975585938 127.84400177001953,132.0679931640625 116.72799682617188,125.00900268554688 C107.60600280761719,119.22000122070312 101.27899932861328,111.66500091552734 96.75199890136719,104.30999755859375 C92.68000030517578,97.69300079345703 90.63999938964844,90.62000274658203 89.71199798583984,83.35199737548828 C88.7699966430664,75.9489974975586 89.38800048828125,67.3489990234375 91.29199981689453,60.27399826049805 C93.11699676513672,53.49700164794922 96.27200317382812,47.1510009765625 100.5739974975586,41.60499954223633 C105.08699798583984,35.76499938964844 110.94400024414062,29.979999542236328 118.13500213623047,26.183000564575195 C126.03299713134766,22.017000198364258 135.7469940185547,18.7189998626709 146.3979949951172,19.256000518798828"></path></g></g></g></g></svg>