<svg xmlns="http://www.w3.org/2000/svg" viewBox="0 0 500 500"><path fill="#4285f4" d="M218.25 156.064c-2.273.008-4.531.06-6.778.162H83.343l35.422 35.422C83.28 220.64 60.613 264.743 60.613 314.142c0 51.409 24.54 97.08 62.54 125.95l58.672-58.061a76.919 76.919 0 0 1-26.386-23.522c-7.913-10.136-14.381-24.498-14.381-44.367 0-2.401.283-4.252.81-5.613 1.942-24.618 15.527-45.954 35.245-58.517l41.1 41.098c-.204-52.056-.325-110.865.026-135.042"/><path fill="#ababab" d="M60.62 314.138c.008 2.27.06 4.528.163 6.774v128.13l35.422-35.422c28.99 35.486 73.094 58.152 122.494 58.152 51.408 0 97.08-24.54 125.95-62.54l-58.062-58.673a76.93 76.93 0 0 1-23.521 26.39c-10.137 7.91-24.498 14.378-44.367 14.378-2.402 0-4.252-.28-5.613-.81-24.619-1.942-45.954-15.527-58.518-35.246l41.099-41.099c-52.057.204-110.865.325-135.043-.026"/><g fill="#1c3aa9" transform="rotate(8 1887.755 -2149.032) scale(3.76951)"><circle cx="134.063" cy="73.904" r="21.249" transform="rotate(38 123.004 84.682)"/><circle cx="169.258" cy="72.593" r="25.577" transform="rotate(38 131.454 80.561)"/><path d="M137.574 61.809c3.362-.301 7.365.063 11.412.896 4.556.937 29.249 11.466 31.351 13.928 1.822 2.134 5.16 6.794 5.922 9.135.734 2.256 1.085 4.798.874 6.995-.201 2.09-1.027 4.207-1.968 5.902-.88 1.587-1.942 2.896-3.388 4.045-1.586 1.26-3.935 2.488-5.902 3.06-1.822.53-3.679.62-5.465.437-1.784-.182-3.507-.572-5.247-1.53-2.016-1.11-4.911-4.045-6.012-5.137-.573-.57-.237-.709-.983-1.202-1.759-1.163-8.115-3.748-12.242-5.028-4.037-1.253-9.061-1.18-12.242-2.624-2.61-1.184-4.551-2.935-6.012-4.7-1.314-1.588-2.111-3.371-2.623-5.246-.521-1.91-.676-4.192-.437-6.121a14.024 14.024 0 0 1 1.749-5.247c.97-1.701 2.295-3.437 4.044-4.7 1.921-1.386 4.351-2.611 7.169-2.863Z"/></g></svg>