<svg width="143" height="143" viewBox="0 0 143 143" fill="none" xmlns="http://www.w3.org/2000/svg">
<path fill-rule="evenodd" clip-rule="evenodd" d="M42.0001 127.355C42.0001 118.66 61.0131 123.263 61.0131 99.7628C61.0131 86.9753 46.3625 86.0801 46.3625 74.7845C46.3625 57.4648 62.5762 9 72.0685 9C81.5608 9 98.0728 57.4221 98.0728 73.3636C98.0728 85.1992 82.9107 84.5882 82.9107 97.6742C82.9107 122.425 101 121.033 101 127.767C101 136.25 42.0001 136.037 42.0001 127.355ZM69.2265 29.5879C65.2619 28.1671 53.1976 65.8903 56.3664 70.1383C58.7537 73.3352 64.1677 73.1505 66.6829 55.4756C68.3881 43.5263 71.9264 30.5399 69.2265 29.5879ZM66.1002 120.933C61.0841 119.91 56.5369 120.805 56.338 124.173C56.0538 128.606 74.541 128.776 74.4415 125.182C74.3421 122.78 70.7043 121.885 66.1002 120.933Z" fill="#FF9F9F"/>
<path d="M120.652 111.89L131.036 82.0504L118.284 79.6749L124.648 52.1098" stroke="#FFBCBC" stroke-width="7" stroke-linecap="round"/>
<path d="M21.6481 109.89L11.264 80.0504L24.0157 77.6749L17.6518 50.1098" stroke="#FFBCBC" stroke-width="7" stroke-linecap="round"/>
</svg>
